# Blender v2.92.0 OBJ File: 'untitled.blend'
# www.blender.org
o Hammer1_Cube.009
v -0.020694 0.017006 0.005276
v -0.020694 -0.014795 0.001492
v -0.020694 -0.005325 -0.259121
v -0.020694 0.026476 -0.255337
v 0.020980 -0.014795 0.001492
v 0.020980 0.017006 0.005276
v 0.020980 -0.005325 -0.259121
v 0.020980 0.026476 -0.255337
v 0.020980 -0.000471 -0.299914
v -0.020694 -0.000471 -0.299914
v -0.020694 0.031330 -0.296130
v 0.020980 0.031330 -0.296130
v -0.020694 0.062307 -0.251074
v 0.020980 0.062307 -0.251074
v -0.020694 0.067160 -0.291867
v 0.020980 0.067160 -0.291867
vt 0.738199 0.257803
vt 0.740156 0.305605
vt 0.734266 0.305605
vt 0.552220 0.763025
vt 0.545583 0.755360
vt 0.552220 0.755360
vt 0.431778 0.778309
vt 0.429821 0.826111
vt 0.425887 0.778309
vt 0.661314 0.316716
vt 0.667204 0.309052
vt 0.667204 0.316716
vt 0.795177 0.670751
vt 0.802842 0.622828
vt 0.802842 0.670751
vt 0.275194 0.791974
vt 0.282858 0.744051
vt 0.282858 0.791974
vt 0.616436 0.314942
vt 0.608771 0.309052
vt 0.616436 0.309052
vt 0.425887 0.770753
vt 0.431778 0.770753
vt 0.734266 0.313161
vt 0.795177 0.678300
vt 0.642650 0.316717
vt 0.635101 0.309052
vt 0.642650 0.309052
vt 0.438414 0.770753
vt 0.438414 0.778309
vt 0.608771 0.321578
vt 0.608771 0.314942
vt 0.746792 0.313161
vt 0.740156 0.313161
vt 0.744089 0.257803
vt 0.545583 0.763025
vt 0.435711 0.826111
vt 0.661314 0.309052
vt 0.795177 0.622828
vt 0.275194 0.744051
vt 0.802842 0.678300
vt 0.635101 0.316717
vt 0.616436 0.321578
vt 0.746792 0.305605
vn -1.0000 0.0000 0.0000
vn 0.0000 -0.1181 0.9930
vn 1.0000 -0.0000 0.0000
vn 0.0000 -0.9993 -0.0363
vn 0.0000 0.9993 0.0363
vn 0.0000 0.1181 -0.9930
vn 0.0000 -0.9930 -0.1181
vn 0.0000 0.9930 0.1181
s off
f 2/1/1 4/2/1 3/3/1
f 8/4/2 13/5/2 4/6/2
f 8/7/3 5/8/3 7/9/3
f 6/10/2 2/11/2 5/12/2
f 7/13/4 2/14/4 3/15/4
f 4/16/5 6/17/5 8/18/5
f 11/19/6 9/20/6 10/21/6
f 8/7/3 9/22/3 12/23/3
f 4/2/1 10/24/1 3/3/1
f 3/15/7 9/25/7 7/13/7
f 14/26/8 15/27/8 13/28/8
f 8/7/3 16/29/3 14/30/3
f 11/19/6 16/31/6 12/32/6
f 4/2/1 15/33/1 11/34/1
f 2/1/1 1/35/1 4/2/1
f 8/4/2 14/36/2 13/5/2
f 8/7/3 6/37/3 5/8/3
f 6/10/2 1/38/2 2/11/2
f 7/13/4 5/39/4 2/14/4
f 4/16/5 1/40/5 6/17/5
f 11/19/6 12/32/6 9/20/6
f 8/7/3 7/9/3 9/22/3
f 4/2/1 11/34/1 10/24/1
f 3/15/7 10/41/7 9/25/7
f 14/26/8 16/42/8 15/27/8
f 8/7/3 12/23/3 16/29/3
f 11/19/6 15/43/6 16/31/6
f 4/2/1 13/44/1 15/33/1
o Lid_Cube.013
v -0.009293 0.042212 -0.864050
v -0.009229 -0.039663 -0.864050
v -0.009293 0.042212 0.572868
v -0.009229 -0.039662 0.572868
v 1.329385 0.043259 0.572868
v 1.329449 -0.038615 0.572868
v 1.329385 0.043259 -0.119120
v 0.578065 0.042671 -0.864050
v 0.578130 -0.039203 -0.864050
v 1.329449 -0.038615 -0.119120
vt 0.289265 0.395837
vt 0.274206 0.660114
vt 0.274206 0.395837
vt 0.407223 0.624819
vt 0.392165 0.871028
vt 0.392165 0.624819
vt 0.761454 0.730855
vt 0.776513 0.622828
vt 0.776513 0.730855
vt 0.555262 0.341876
vt 0.447235 0.606154
vt 0.309052 0.469147
vt 0.440946 0.752089
vt 0.425888 0.624819
vt 0.440946 0.624819
vt 0.761454 0.869038
vt 0.147515 0.395837
vt 0.255542 0.660115
vt 0.009332 0.532844
vt 0.289265 0.660114
vt 0.407223 0.871028
vt 0.761454 0.622828
vt 0.309052 0.341876
vt 0.555262 0.606154
vt 0.425888 0.752089
vt 0.776513 0.869038
vt 0.255542 0.395837
vt 0.009332 0.660115
vn -1.0000 -0.0008 0.0000
vn -0.0000 0.0000 1.0000
vn -0.0000 0.0000 -1.0000
vn 0.0008 -1.0000 -0.0000
vn 1.0000 0.0008 0.0000
vn 0.7041 0.0006 -0.7101
vn -0.0008 1.0000 -0.0000
vn 0.7041 0.0005 -0.7101
s off
f 18/45/9 19/46/9 17/47/9
f 20/48/10 21/49/10 19/50/10
f 25/51/11 17/52/11 24/53/11
f 20/54/12 25/55/12 26/56/12
f 21/57/13 26/58/13 23/59/13
f 24/53/14 26/60/14 25/51/14
f 24/61/15 19/62/15 23/63/15
f 18/45/9 20/64/9 19/46/9
f 20/48/10 22/65/10 21/49/10
f 25/51/11 18/66/11 17/52/11
f 26/56/12 22/67/12 20/54/12
f 20/54/12 18/68/12 25/55/12
f 21/57/13 22/69/13 26/58/13
f 24/53/16 23/70/16 26/60/16
f 17/71/15 19/62/15 24/61/15
f 19/62/15 21/72/15 23/63/15
