# Blender v2.90.1 OBJ File: 'keys.blend'
# www.blender.org
o Cube_Cube.001
v -2.282295 2.545501 3.360601
v -2.328492 2.545428 3.381298
v -2.331999 2.545550 3.360996
v -2.334171 2.545872 3.361825
v -2.333333 2.546080 3.349756
v -2.335386 2.546520 3.361882
v -2.281269 2.545905 3.349952
v -2.254445 2.549885 3.970284
v -2.254985 2.548355 3.975569
v -2.255228 2.546746 3.970178
v -2.256367 2.550144 3.977890
v -2.335751 2.575922 3.977458
v -2.334298 2.548040 3.977556
v -2.258510 2.545529 3.808290
v -2.260166 2.545427 3.962237
v -2.283376 2.545429 3.815665
v -2.257821 2.575082 3.978134
v -2.336469 2.587406 3.979478
v -2.253733 2.583989 3.970613
v -2.254627 2.581457 3.975995
v -2.256661 2.550179 3.800822
v -2.275253 2.581195 3.800181
v -2.260015 2.582082 3.800050
v -2.255521 2.587410 3.979728
v -2.259111 2.545960 3.802698
v -2.276879 2.548203 3.800339
v -2.337939 2.597770 3.800919
v -2.337379 2.597398 3.792126
v -2.339923 2.597204 3.797874
v -2.340724 2.596400 3.976359
v -2.339185 2.597589 3.978652
v -2.252277 2.589997 3.807096
v -2.254045 2.580869 3.810724
v -2.254610 2.585229 3.801702
v -2.250722 2.592867 3.795106
v -2.250066 2.592346 3.803734
v -2.253530 2.590124 3.797580
v -2.254827 2.592174 3.984891
v -2.250987 2.596390 3.982065
v -2.255191 2.597182 3.983887
v -2.274037 2.596511 3.793710
v -2.256712 2.592874 3.792840
v -2.275305 2.592422 3.793233
v -2.257643 2.597213 3.794818
v -2.339755 2.596467 3.353970
v -2.338053 2.596716 3.342654
v -2.340278 2.594561 3.342422
v -2.341059 2.593687 3.353935
v -2.339784 2.591936 3.343742
v -2.340481 2.591933 3.355701
v -2.337771 2.591991 3.340947
v -2.341024 2.593580 3.982913
v -2.340746 2.595509 3.794996
v -2.341074 2.593623 3.792965
v -2.340467 2.591936 3.979465
v -2.252816 2.597640 3.797165
v -2.249781 2.594559 3.977004
v -2.250919 2.592351 3.982580
v -2.250518 2.591940 3.976039
v -2.252274 2.597656 3.979614
v -2.253622 2.597773 3.980435
v -2.337171 2.583791 3.970330
v -2.338515 2.589786 3.972152
v -2.337525 2.590334 3.981543
v -2.337328 2.592432 3.985133
v -2.252578 2.589835 3.977167
v -2.254611 2.590362 3.981798
v -2.336673 2.597088 3.984171
v -2.336880 2.597772 3.980036
v -2.332010 2.545541 3.969883
v -2.332670 2.545927 3.975735
v -2.334175 2.545866 3.969157
v -2.336076 2.547548 3.974645
v -2.335393 2.546517 3.969352
v -2.258853 2.545539 3.971256
v -2.336629 2.568882 3.969599
v -2.256742 2.545884 3.970079
v -2.258911 2.545866 3.975363
v -2.256708 2.546505 3.976601
v -2.254502 2.548347 3.804101
v -2.336559 2.549972 3.969151
v -2.253190 2.597774 3.799345
v -2.250757 2.597156 3.802886
v -2.285117 2.597775 3.797843
v -2.256229 2.546073 3.805189
v -2.277495 2.593663 3.355253
v -2.277904 2.590559 3.346245
v -2.278425 2.596473 3.342853
v -2.279431 2.590652 3.343158
v -2.279538 2.593645 3.339983
v -2.281918 2.597666 3.353786
v -2.329986 2.597775 3.373506
v -2.279750 2.597331 3.354793
v -2.281342 2.597286 3.341882
v -2.334145 2.597664 3.351769
v -2.279800 2.584978 3.346464
v -2.336555 2.549989 3.362010
v -2.336206 2.550573 3.350383
v -2.337169 2.583856 3.361080
v -2.336359 2.581692 3.349797
v -2.334965 2.581307 3.347255
v -2.280435 2.597585 3.792091
v -2.277956 2.597691 3.796306
v -2.281498 2.545490 3.805634
v -2.279797 2.545779 3.798914
v -2.278363 2.545707 3.802734
v -2.279809 2.548413 3.347553
v -2.334183 2.547920 3.347910
v -2.335781 2.594439 3.339591
v -2.333998 2.597242 3.341979
v -2.336189 2.589793 3.344380
v -2.277548 2.550132 3.361964
v -2.277498 2.550181 3.787832
v -2.278037 2.547538 3.350920
v -2.337964 2.589862 3.347034
v -2.338524 2.589818 3.358716
v -2.337368 2.597328 3.354023
v -2.277347 2.593258 3.789754
v -2.328492 2.545427 3.962224
v -2.278275 2.546712 3.789311
v -2.335959 2.547454 3.351258
v -2.278219 2.596671 3.791470
v -2.333227 2.597772 3.793643
v -2.339228 2.596824 3.791297
v -2.277109 2.589601 3.797178
v -2.279337 2.545979 3.362344
v -2.256957 2.595080 3.985527
v -2.250906 2.597189 3.975394
vt 0.344799 0.957168
vt 0.479857 0.925052
vt 0.490125 0.956545
vt 0.496479 0.955252
vt 0.494039 0.973973
vt 0.500041 0.955151
vt 0.341812 0.973681
vt 0.812696 0.271046
vt 0.808200 0.279180
vt 0.803439 0.270821
vt 0.812625 0.293155
vt 0.888070 0.415672
vt 0.806550 0.413482
vt 0.275010 0.262649
vt 0.279764 0.023824
vt 0.347706 0.251204
vt 0.885545 0.295400
vt 0.921684 0.417058
vt 0.912421 0.271384
vt 0.904961 0.279636
vt 0.993251 0.352398
vt 0.937274 0.305048
vt 0.981730 0.303158
vt 0.922280 0.285276
vt 0.886002 0.282652
vt 0.904142 0.290146
vt 0.986509 0.359284
vt 0.934234 0.356035
vt 0.255060 0.715735
vt 0.253442 0.702087
vt 0.260853 0.711003
vt 0.262572 0.987873
vt 0.258100 0.991452
vt 0.929114 0.018413
vt 0.902274 0.023903
vt 0.914897 0.009849
vt 0.964417 0.361558
vt 0.930282 0.366226
vt 0.952973 0.360313
vt 1.000000 0.290146
vt 0.997535 0.298383
vt 0.965947 0.266940
vt 0.953632 0.273266
vt 0.951325 0.266504
vt 0.967560 0.170227
vt 0.978395 0.143488
vt 0.979272 0.172304
vt 0.966341 0.144737
vt 0.261831 0.022355
vt 0.256899 0.004805
vt 0.263338 0.004401
vt 0.643618 0.975365
vt 0.638275 0.991121
vt 0.638368 0.972609
vt 0.637997 0.995360
vt 0.646048 0.993176
vt 0.640138 0.000000
vt 0.646643 0.291380
vt 0.641230 0.294556
vt 0.648324 0.010130
vt 0.651383 0.286866
vt 0.635237 0.005332
vt 0.965947 0.137122
vt 0.979272 0.134083
vt 0.943772 0.281620
vt 0.949023 0.289312
vt 0.937233 0.290146
vt 0.936035 0.280068
vt 0.936195 0.013426
vt 0.012500 0.999435
vt 0.004001 0.992810
vt 0.007943 0.994089
vt 0.610791 0.019393
vt 0.621124 0.005149
vt 0.628563 0.016592
vt 0.936636 0.415753
vt 0.942243 0.410033
vt 0.942243 0.418985
vt 0.929668 0.281609
vt 0.973613 0.131969
vt 0.957478 0.134083
vt 0.960380 0.128445
vt 0.250723 1.000000
vt 0.251364 0.993598
vt 0.489819 0.011947
vt 0.491752 0.002862
vt 0.496155 0.013067
vt 0.501738 0.004523
vt 0.499726 0.012754
vt 0.275922 0.009831
vt 0.567211 0.020596
vt 0.587495 0.008322
vt 0.269756 0.011651
vt 0.276094 0.003456
vt 0.265344 0.011483
vt 0.269663 0.001522
vt 0.807161 0.013839
vt 0.504872 0.012879
vt 0.512076 0.021406
vt 0.007288 0.713161
vt 0.000143 0.718637
vt 0.937594 0.000000
vt 0.950170 0.012005
vt 0.100637 0.710881
vt 0.268351 0.267450
vt 0.660820 0.692728
vt 0.669946 0.706700
vt 0.652729 0.712034
vt 0.669845 0.711640
vt 0.661118 0.716580
vt 0.092772 0.022004
vt 0.233245 0.052673
vt 0.086420 0.023556
vt 0.082559 0.005013
vt 0.091116 0.003528
vt 0.245474 0.018958
vt 0.686461 0.706535
vt 0.515174 0.962906
vt 0.516857 0.980918
vt 0.614041 0.964163
vt 0.607606 0.981636
vt 0.606183 0.985514
vt 0.086962 0.701948
vt 0.079703 0.708484
vt 0.930282 0.418985
vt 0.921615 0.292062
vt 0.930282 0.290954
vt 0.951325 0.127846
vt 0.973613 0.000001
vt 0.342222 0.266766
vt 0.337258 0.277185
vt 0.333062 0.271261
vt 0.906808 0.420754
vt 0.808275 0.505222
vt 0.809480 0.420928
vt 0.250197 0.000000
vt 0.245063 0.003760
vt 0.944252 0.508000
vt 0.951925 0.510919
vt 0.945085 0.514812
vt 0.932409 0.506942
vt 0.914932 0.506355
vt 0.932409 0.418985
vt 0.962174 0.506966
vt 0.951925 0.509085
vt 0.969577 0.418985
vt 0.788009 0.682139
vt 0.787194 0.022995
vt 0.795658 0.699272
vt 0.965947 0.185481
vt 0.971475 0.176823
vt 0.971475 0.243960
vt 0.631801 0.985943
vt 0.631740 0.967855
vt 0.969577 0.509985
vt 0.631212 0.989976
vt 0.254877 0.022453
vt 0.661309 0.020208
vt 0.479535 0.023831
vt 0.792888 0.003562
vt 0.797411 0.020771
vt 0.507704 0.979570
vt 0.504800 0.963072
vt 0.501738 0.021062
vt 0.651429 0.975232
vt 0.651429 0.017663
vt 0.663527 0.014601
vt 0.080456 0.700960
vt 0.241309 0.704441
vt 0.258832 0.700791
vt 0.931099 0.291665
vt 0.964417 0.403042
vt 0.930628 0.376160
vt 0.939946 0.368843
vt 0.006197 0.709777
vt 0.020305 0.706134
vt 0.068217 0.704425
vt 0.276776 0.271316
vt 0.336157 0.954457
vt 0.332827 0.292067
vt 0.803532 0.422279
vt 0.936669 0.505199
vt 0.932409 0.423591
vt 0.942294 0.420774
vt 0.952343 0.140607
vt 0.957459 0.263546
vt 0.965947 0.139473
vt 0.801962 0.293498
vt 0.501738 0.971619
vt 0.332387 0.972151
vt 0.337584 0.977358
vt 1.000000 0.355670
vt 0.263338 0.269100
vt 0.802616 0.280606
vt 0.813292 0.282610
vt 0.807352 0.290685
vt 0.508675 0.984673
vt 0.496555 0.976802
vt 0.000190 0.996584
vt 0.000000 0.986251
vt 0.929290 0.003549
vt 0.965434 0.273312
vt 0.650149 0.297035
vt 0.951325 0.278989
vt 0.962662 0.134083
vt 0.629889 0.001979
vt 0.959275 0.275489
vt 0.959275 0.290146
vt 0.951325 0.286487
vt 0.651429 0.006494
vt 0.263338 0.997980
vt 0.936636 0.408926
vt 0.936636 0.418985
vt 0.930282 0.413208
vt 0.931016 0.288555
vt 0.505888 0.008279
vt 0.800336 0.015357
vt 0.496545 0.000000
vt 0.812259 0.008522
vt 0.951325 0.002929
vt 0.938712 0.511427
vt 0.934830 0.418985
vt 0.974230 0.418709
vt 0.964417 0.416794
vt 0.974230 0.360313
vt 0.959687 0.512486
vt 0.671958 0.008676
vt 0.800336 0.000000
vt 0.800336 0.681723
vt 0.263216 0.706503
vt 0.944657 0.407666
vt 0.951853 0.402720
vt 0.696315 0.003788
vt 0.966299 0.176823
vt 0.930282 0.360313
vt 0.800336 0.502998
vt 0.951925 0.420320
vt 0.963033 0.000000
vt 0.800336 0.410705
vn 0.0812 -0.9965 -0.0173
vn -0.0162 -0.9999 -0.0012
vn -0.0758 -0.9969 -0.0216
vn -0.3187 -0.9477 -0.0181
vn -0.2492 -0.8932 -0.3743
vn -0.6794 -0.7337 -0.0129
vn 0.2092 -0.9019 -0.3779
vn 0.9922 -0.1195 0.0368
vn 0.8968 -0.2979 0.3272
vn 0.7906 -0.6112 0.0380
vn 0.4542 -0.1441 0.8792
vn -0.6734 -0.0877 0.7341
vn -0.4412 -0.3626 0.8209
vn 0.1096 -0.9936 -0.0281
vn 0.0397 -0.9992 0.0035
vn 0.0022 -1.0000 -0.0012
vn 0.2838 -0.0496 0.9576
vn -0.6224 -0.4371 0.6492
vn 0.9907 -0.1313 0.0371
vn 0.9151 -0.1552 0.3721
vn 0.4490 -0.2310 -0.8631
vn 0.4002 -0.1318 -0.9069
vn 0.1500 -0.1807 -0.9720
vn 0.4484 -0.4149 0.7917
vn 0.1807 -0.8118 -0.5552
vn 0.6550 -0.4755 -0.5873
vn -0.1381 0.9904 -0.0098
vn -0.1743 0.9841 -0.0335
vn -0.6110 0.7907 -0.0386
vn -0.8710 0.4897 0.0388
vn -0.4704 0.8704 0.1455
vn 0.8656 -0.4966 -0.0639
vn 0.9947 -0.0945 -0.0406
vn 0.8368 -0.3266 -0.4394
vn 0.7529 -0.1754 -0.6344
vn 0.9374 -0.3434 -0.0583
vn 0.4837 -0.7349 -0.4754
vn 0.2875 -0.4325 0.8546
vn 0.7141 0.4943 0.4957
vn 0.2430 0.7329 0.6354
vn 0.1281 0.6278 -0.7678
vn 0.1848 -0.2439 -0.9520
vn 0.3389 -0.5202 -0.7839
vn 0.1255 0.7621 -0.6352
vn -0.6733 0.7391 -0.0187
vn -0.4140 0.8315 -0.3704
vn -0.8555 0.2125 -0.4722
vn -0.9988 0.0369 -0.0313
vn -0.7679 -0.5799 -0.2721
vn -0.8519 -0.5232 -0.0217
vn -0.3932 -0.5621 -0.7276
vn -0.8517 -0.1052 0.5134
vn -0.9189 0.3925 -0.0408
vn -0.9965 -0.0842 -0.0007
vn -0.7730 -0.6231 0.1193
vn 0.4340 0.8052 -0.4041
vn 0.9957 0.0659 0.0646
vn 0.7484 -0.3857 0.5395
vn 0.8646 -0.5013 0.0331
vn 0.3396 0.9336 0.1144
vn 0.1144 0.9832 0.1420
vn -0.9887 -0.1345 0.0662
vn -0.8650 -0.4984 0.0585
vn -0.4411 -0.7598 0.4777
vn -0.2937 -0.3897 0.8729
vn 0.8038 -0.5588 0.2039
vn 0.2936 -0.7922 0.5351
vn -0.2513 0.6995 0.6690
vn -0.0747 0.9924 0.0981
vn -0.0785 -0.9964 0.0333
vn -0.1926 -0.8913 0.4106
vn -0.3236 -0.9454 0.0376
vn -0.8333 -0.4786 0.2767
vn -0.6564 -0.7536 0.0358
vn 0.0973 -0.9940 0.0495
vn -0.9981 -0.0160 0.0590
vn 0.3390 -0.9402 0.0342
vn 0.0772 -0.9667 0.2438
vn 0.3985 -0.7011 0.5913
vn 0.8603 -0.3747 -0.3456
vn -0.9958 -0.0880 0.0267
vn 0.1254 0.9919 -0.0216
vn 0.7517 0.6574 -0.0523
vn 0.0051 1.0000 -0.0049
vn 0.5069 -0.8362 -0.2092
vn 0.9886 0.1501 -0.0153
vn 0.9622 -0.1075 -0.2501
vn 0.7597 0.5664 -0.3195
vn 0.4945 -0.5597 -0.6650
vn 0.4822 -0.1215 -0.8676
vn 0.0794 0.9967 -0.0158
vn -0.0114 0.9999 -0.0013
vn 0.3554 0.9347 -0.0053
vn 0.1578 0.8447 -0.5115
vn -0.0637 0.9976 -0.0273
vn 0.1734 -0.2149 -0.9611
vn -0.9981 0.0606 -0.0071
vn -0.9420 -0.0677 -0.3287
vn -0.9913 -0.1303 -0.0177
vn -0.9583 -0.1328 -0.2529
vn -0.5167 -0.1838 -0.8362
vn 0.1671 0.9846 -0.0513
vn 0.0519 0.9915 -0.1192
vn 0.0276 -0.9995 -0.0136
vn 0.1560 -0.9872 -0.0338
vn 0.1401 -0.9738 -0.1793
vn 0.4602 -0.3526 -0.8148
vn -0.4292 -0.3875 -0.8159
vn -0.1942 0.1445 -0.9703
vn -0.0756 0.8991 -0.4313
vn -0.3499 -0.7019 -0.6204
vn 0.9960 -0.0884 -0.0113
vn 0.9934 -0.1111 -0.0273
vn 0.8386 -0.4826 -0.2525
vn -0.7891 -0.5697 -0.2296
vn -0.8815 -0.4719 -0.0156
vn -0.2252 0.9742 -0.0147
vn 0.9849 0.1066 -0.1363
vn -0.0140 -0.9999 0.0047
vn 0.7983 -0.6015 -0.0303
vn -0.8309 -0.5182 -0.2030
vn 0.5890 0.7616 -0.2703
vn -0.0331 0.9994 -0.0099
vn -0.4900 0.8713 -0.0259
vn 0.6434 -0.4563 -0.6146
vn 0.4922 -0.8705 -0.0071
vn 0.1637 0.2207 0.9615
vn 0.6823 0.7309 0.0173
s 1
f 1/1/1 2/2/2 3/3/3
f 4/4/4 5/5/5 3/3/3
f 6/6/6 5/5/5 4/4/4
f 3/3/3 7/7/7 1/1/1
f 8/8/8 9/9/9 10/10/10
f 11/11/11 12/12/12 13/13/13
f 14/14/14 15/15/15 16/16/16
f 17/17/17 18/18/18 12/12/12
f 19/19/19 20/20/20 8/8/8
f 21/21/21 22/22/22 23/23/23
f 20/20/20 24/24/24 17/25/17
f 11/11/11 20/26/20 17/17/17
f 21/21/21 25/27/25 26/28/26
f 27/29/27 28/30/28 29/31/29
f 29/31/29 30/32/30 31/33/31
f 32/34/32 19/19/19 33/35/33
f 33/35/33 34/36/34 32/34/32
f 32/37/32 35/38/35 36/39/36
f 37/40/37 34/41/34 23/23/23
f 38/42/38 39/43/39 40/44/40
f 41/45/41 42/46/42 43/47/43
f 44/48/44 42/46/42 41/45/41
f 45/49/45 46/50/46 47/51/47
f 48/52/48 49/53/49 50/54/50
f 51/55/51 49/53/49 47/56/47
f 52/57/52 53/58/53 54/59/54
f 30/60/30 29/61/29 53/58/53
f 55/62/55 52/57/52 54/59/54
f 42/46/42 56/63/56 35/64/35
f 57/65/57 39/66/39 58/67/58
f 57/65/57 58/67/58 59/68/59
f 59/68/59 36/69/36 57/65/57
f 40/70/40 60/71/60 61/72/61
f 62/73/62 18/74/18 63/75/63
f 64/76/64 65/77/65 55/78/55
f 66/79/66 20/20/20 19/19/19
f 24/24/24 20/20/20 66/79/66
f 66/79/66 36/69/36 59/68/59
f 66/80/66 58/81/58 67/82/67
f 31/33/31 68/83/68 69/84/69
f 70/85/70 71/86/71 72/87/72
f 72/87/72 73/88/73 74/89/74
f 70/85/70 15/15/15 75/90/75
f 75/90/75 71/86/71 70/85/70
f 76/91/76 12/92/12 62/73/62
f 15/15/15 14/14/14 75/90/75
f 77/93/77 78/94/78 75/90/75
f 10/95/10 79/96/79 77/93/77
f 10/10/10 80/97/80 8/8/8
f 73/98/73 76/91/76 81/99/81
f 8/8/8 80/97/80 33/35/33
f 33/35/33 80/97/80 34/36/34
f 82/100/82 61/72/61 60/71/60
f 60/71/60 83/101/83 82/100/82
f 35/102/35 83/103/83 36/69/36
f 69/84/69 84/104/84 27/29/27
f 14/14/14 85/105/85 77/93/77
f 77/93/77 85/105/85 10/95/10
f 86/106/86 87/107/87 88/108/88
f 87/107/87 89/109/89 90/110/90
f 91/111/91 92/112/92 84/104/84
f 93/113/93 88/114/88 94/115/94
f 94/115/94 95/116/95 91/111/91
f 87/107/87 96/117/96 89/109/89
f 97/118/97 76/91/76 98/119/98
f 99/120/99 100/121/100 98/119/98
f 101/122/101 98/119/98 100/121/100
f 102/123/102 84/104/84 103/124/103
f 64/125/64 24/126/24 67/127/67
f 67/82/67 38/128/38 64/129/64
f 104/130/104 105/131/105 106/132/106
f 101/133/101 107/134/107 108/135/108
f 109/136/109 46/50/46 110/137/110
f 109/138/109 51/139/51 47/140/47
f 89/141/89 96/142/96 111/143/111
f 111/144/111 51/145/51 89/146/89
f 101/133/101 96/142/96 107/134/107
f 112/147/112 86/106/86 113/148/113
f 114/149/114 86/106/86 112/147/112
f 96/150/96 87/151/87 114/152/114
f 50/54/50 115/153/115 116/154/116
f 115/155/115 51/145/51 111/144/111
f 116/154/116 100/121/100 99/120/99
f 111/156/111 100/121/100 115/153/115
f 95/116/95 94/115/94 110/137/110
f 110/137/110 117/157/117 95/116/95
f 46/50/46 45/49/45 117/157/117
f 98/119/98 62/73/62 99/120/99
f 86/106/86 88/108/88 118/158/118
f 114/149/114 112/147/112 113/148/113
f 3/3/3 2/2/2 119/159/119
f 72/87/72 3/3/3 70/85/70
f 74/89/74 4/4/4 72/87/72
f 113/148/113 26/160/26 120/161/120
f 76/91/76 97/118/97 81/99/81
f 81/99/81 121/162/121 73/98/73
f 73/98/73 6/163/6 74/164/74
f 54/59/54 45/165/45 48/52/48
f 54/59/54 50/54/50 55/62/55
f 118/158/118 122/166/122 43/167/43
f 103/124/103 122/168/122 102/123/102
f 102/123/102 93/113/93 91/111/91
f 102/123/102 88/114/88 93/113/93
f 91/111/91 84/104/84 102/123/102
f 55/62/55 116/154/116 63/75/63
f 63/75/63 99/120/99 62/73/62
f 123/169/123 92/112/92 95/116/95
f 123/169/123 84/104/84 92/112/92
f 95/116/95 28/30/28 123/169/123
f 117/157/117 124/170/124 28/30/28
f 37/40/37 23/23/23 125/171/125
f 125/172/125 42/173/42 37/174/37
f 82/100/82 56/175/56 103/124/103
f 61/72/61 82/100/82 84/104/84
f 103/124/103 44/176/44 41/177/41
f 104/130/104 25/178/25 14/14/14
f 14/14/14 16/16/16 104/130/104
f 119/159/119 1/1/1 16/16/16
f 104/130/104 126/179/126 105/131/105
f 105/131/105 126/179/126 120/180/120
f 1/1/1 119/159/119 2/2/2
f 1/1/1 7/7/7 126/179/126
f 107/134/107 5/181/5 108/135/108
f 110/182/110 94/183/94 109/138/109
f 90/184/90 51/139/51 109/138/109
f 61/72/61 68/83/68 40/70/40
f 40/44/40 68/185/68 127/186/127
f 65/187/65 38/42/38 127/186/127
f 13/13/13 79/188/79 11/11/11
f 84/104/84 123/169/123 27/29/27
f 6/6/6 121/189/121 5/5/5
f 3/3/3 5/5/5 7/7/7
f 114/190/114 7/7/7 107/191/107
f 21/21/21 80/192/80 25/27/25
f 80/193/80 85/105/85 25/178/25
f 10/10/10 9/9/9 79/194/79
f 14/14/14 25/178/25 85/105/85
f 12/12/12 11/11/11 17/17/17
f 20/20/20 9/9/9 8/8/8
f 20/20/20 11/195/11 9/9/9
f 34/41/34 21/21/21 23/23/23
f 17/17/17 24/126/24 18/18/18
f 11/11/11 79/188/79 9/196/9
f 97/118/97 98/119/98 121/162/121
f 98/119/98 108/197/108 121/162/121
f 108/198/108 5/5/5 121/189/121
f 29/31/29 28/30/28 124/170/124
f 27/29/27 29/31/29 31/33/31
f 60/71/60 39/199/39 128/200/128
f 60/71/60 128/200/128 83/101/83
f 32/34/32 66/79/66 19/19/19
f 32/34/32 34/36/34 37/201/37
f 32/37/32 37/174/37 35/38/35
f 123/169/123 28/30/28 27/29/27
f 42/173/42 35/38/35 37/174/37
f 127/186/127 38/42/38 40/44/40
f 38/42/38 58/202/58 39/43/39
f 48/52/48 45/165/45 47/56/47
f 48/52/48 47/56/47 49/53/49
f 52/57/52 30/60/30 53/58/53
f 53/58/53 29/61/29 124/203/124
f 42/46/42 44/48/44 56/63/56
f 57/65/57 83/103/83 128/204/128
f 57/65/57 128/204/128 39/66/39
f 65/187/65 68/185/68 52/205/52
f 67/82/67 58/81/58 38/128/38
f 40/70/40 39/199/39 60/71/60
f 61/72/61 69/84/69 68/83/68
f 63/75/63 18/74/18 64/206/64
f 63/207/63 64/208/64 55/209/55
f 52/57/52 31/210/31 30/60/30
f 52/211/52 68/83/68 31/33/31
f 55/212/55 65/213/65 52/214/52
f 67/215/67 24/24/24 66/79/66
f 66/79/66 32/34/32 36/69/36
f 59/68/59 58/67/58 66/79/66
f 31/33/31 69/84/69 27/29/27
f 72/87/72 71/86/71 73/88/73
f 70/85/70 119/159/119 15/15/15
f 62/73/62 12/92/12 18/74/18
f 76/91/76 73/98/73 12/92/12
f 73/98/73 13/216/13 12/92/12
f 33/35/33 19/19/19 8/8/8
f 75/90/75 14/14/14 77/93/77
f 77/93/77 79/96/79 78/94/78
f 10/10/10 85/217/85 80/97/80
f 73/88/73 71/86/71 13/218/13
f 80/97/80 21/219/21 34/36/34
f 82/100/82 83/101/83 56/175/56
f 35/102/35 56/220/56 83/103/83
f 36/69/36 83/103/83 57/65/57
f 69/84/69 61/72/61 84/104/84
f 88/108/88 87/107/87 90/110/90
f 91/111/91 95/116/95 92/112/92
f 91/111/91 93/113/93 94/115/94
f 75/90/75 78/94/78 71/86/71
f 78/94/78 79/96/79 71/86/71
f 64/125/64 18/18/18 24/126/24
f 108/197/108 98/119/98 101/122/101
f 109/138/109 47/140/47 46/221/46
f 111/143/111 96/142/96 101/133/101
f 90/184/90 94/183/94 88/222/88
f 114/223/114 107/224/107 96/225/96
f 114/149/114 87/107/87 86/106/86
f 50/54/50 49/53/49 115/153/115
f 115/155/115 49/226/49 51/145/51
f 116/154/116 115/153/115 100/121/100
f 111/156/111 101/122/101 100/121/100
f 110/137/110 46/50/46 117/157/117
f 98/119/98 76/91/76 62/73/62
f 72/87/72 4/4/4 3/3/3
f 74/89/74 6/6/6 4/4/4
f 70/85/70 3/3/3 119/159/119
f 113/148/113 125/227/125 26/160/26
f 120/161/120 26/160/26 106/228/106
f 120/161/120 114/149/114 113/148/113
f 120/161/120 126/229/126 114/149/114
f 81/99/81 97/118/97 121/162/121
f 73/98/73 121/162/121 6/163/6
f 54/59/54 53/58/53 45/165/45
f 53/230/53 124/170/124 45/49/45
f 54/59/54 48/52/48 50/54/50
f 118/158/118 88/108/88 122/166/122
f 102/123/102 122/168/122 88/114/88
f 125/172/125 118/231/118 43/232/43
f 22/233/22 26/160/26 125/227/125
f 113/148/113 118/158/118 125/227/125
f 113/148/113 86/106/86 118/158/118
f 55/62/55 50/54/50 116/154/116
f 63/75/63 116/154/116 99/120/99
f 95/116/95 117/157/117 28/30/28
f 117/157/117 45/49/45 124/170/124
f 125/171/125 23/23/23 22/22/22
f 125/172/125 43/232/43 42/173/42
f 43/47/43 122/234/122 41/45/41
f 84/104/84 82/100/82 103/124/103
f 103/124/103 56/175/56 44/176/44
f 41/177/41 122/168/122 103/124/103
f 26/28/26 25/27/25 106/235/106
f 104/130/104 106/132/106 25/178/25
f 22/22/22 21/21/21 26/28/26
f 120/180/120 106/132/106 105/131/105
f 16/16/16 1/1/1 104/130/104
f 104/130/104 1/1/1 126/179/126
f 126/179/126 7/7/7 114/190/114
f 107/134/107 7/236/7 5/181/5
f 109/138/109 94/183/94 90/184/90
f 90/184/90 89/237/89 51/139/51
f 64/129/64 38/128/38 65/238/65
f 15/15/15 119/159/119 16/16/16
f 127/186/127 68/185/68 65/187/65
f 13/13/13 71/239/71 79/188/79
