# Blender v2.90.1 OBJ File: 'keys.blend'
# www.blender.org
o Cube_Cube.004
v -2.242555 2.572064 3.803900
v -2.241913 2.548740 3.802821
v -2.242692 2.550035 3.809361
v -2.241172 2.546711 3.803693
v -2.241823 2.546749 3.808939
v -2.160429 2.568908 3.969857
v -2.161204 2.547543 3.975370
v -2.160501 2.549960 3.969733
v -2.161345 2.546745 3.970011
v -2.159886 2.583808 3.970602
v -2.160765 2.581457 3.975995
v -2.218197 2.596435 3.352100
v -2.216619 2.596745 3.341738
v -2.218862 2.593664 3.341233
v -2.243222 2.584064 3.803668
v -2.241015 2.581851 3.800439
v -2.242920 2.580438 3.969579
v -2.216622 2.592403 3.340183
v -2.216568 2.589283 3.344770
v -2.218780 2.585634 3.348592
v -2.162350 2.547958 3.977436
v -2.162131 2.581532 3.978075
v -2.240315 2.545891 3.809021
v -2.238176 2.545872 3.803591
v -2.237929 2.545481 3.809018
v -2.238228 2.547235 3.801008
v -2.240298 2.547199 3.977607
v -2.163891 2.545974 3.975779
v -2.243480 2.597775 3.799335
v -2.242628 2.597617 3.796543
v -2.244891 2.597650 3.800159
v -2.238768 2.589800 3.981217
v -2.160929 2.589776 3.980917
v -2.159127 2.592376 3.984981
v -2.243385 2.589096 3.978760
v -2.237998 2.580887 3.978324
v -2.239667 2.592141 3.984879
v -2.158326 2.597653 3.978884
v -2.156376 2.596463 3.975574
v -2.157286 2.597340 3.974366
v -2.165173 2.545535 3.358253
v -2.164532 2.545896 3.349221
v -2.162886 2.545872 3.361003
v -2.157125 2.596390 3.982065
v -2.160107 2.597135 3.984056
v -2.162806 2.597667 3.352350
v -2.210024 2.597775 3.797734
v -2.164283 2.597772 3.794221
v -2.159688 2.597331 3.353221
v -2.156802 2.595753 3.342833
v -2.162216 2.597290 3.341074
v -2.213196 2.597664 3.350404
v -2.244220 2.592416 3.793818
v -2.246058 2.596393 3.796879
v -2.241740 2.596482 3.793890
v -2.247306 2.594478 3.802476
v -2.246414 2.592219 3.797680
v -2.155998 2.593532 3.976338
v -2.156910 2.592374 3.982005
v -2.156571 2.591928 3.975461
v -2.240051 2.595059 3.985533
v -2.242785 2.597197 3.983809
v -2.245888 2.596247 3.983265
v -2.246048 2.592341 3.983023
v -2.159727 2.597774 3.979814
v -2.221512 2.590078 3.797119
v -2.242339 2.589755 3.797873
v -2.221423 2.592440 3.793199
v -2.158943 2.597755 3.801275
v -2.159868 2.597419 3.792104
v -2.244781 2.589997 3.972143
v -2.246621 2.591934 3.974894
v -2.246213 2.597206 3.974531
v -2.247280 2.593954 3.976119
v -2.158502 2.589880 3.972166
v -2.159060 2.589916 3.978425
v -2.244254 2.597678 3.981431
v -2.243161 2.597775 3.979719
v -2.238562 2.545532 3.971121
v -2.241422 2.546509 3.974380
v -2.240310 2.545875 3.969369
v -2.164985 2.545543 3.969985
v -2.168333 2.545427 3.962236
v -2.162882 2.545868 3.969833
v -2.156924 2.597160 3.797562
v -2.155992 2.593553 3.790159
v -2.244482 2.589834 3.801755
v -2.219308 2.545445 3.809093
v -2.242543 2.548289 3.974859
v -2.219450 2.593743 3.353245
v -2.219405 2.550215 3.360427
v -2.216675 2.574527 3.347310
v -2.218402 2.547539 3.349370
v -2.161346 2.546803 3.350332
v -2.160335 2.575603 3.361531
v -2.160486 2.550093 3.361774
v -2.162663 2.548315 3.347625
v -2.160797 2.580601 3.348783
v -2.156561 2.592026 3.343629
v -2.155991 2.593684 3.353827
v -2.158894 2.592565 3.340011
v -2.218570 2.597657 3.796088
v -2.217903 2.596729 3.791128
v -2.220967 2.596533 3.793638
v -2.221330 2.581546 3.800061
v -2.219992 2.548787 3.799850
v -2.219260 2.545897 3.802454
v -2.216596 2.548178 3.347595
v -2.162802 2.581023 3.347142
v -2.214972 2.546066 3.349046
v -2.213826 2.597178 3.340769
v -2.159353 2.587456 3.358804
v -2.159463 2.589792 3.344648
v -2.158149 2.590337 3.356977
v -2.218270 2.546829 3.359689
v -2.209462 2.545428 3.379627
v -2.213358 2.545552 3.359510
v -2.216055 2.545875 3.360307
v -2.219665 2.592256 3.791458
v -2.219321 2.595315 3.790995
v -2.219840 2.589057 3.796875
v -2.157767 2.596682 3.353184
v -2.219457 2.550197 3.789022
v -2.157159 2.596497 3.791095
v -2.218124 2.546675 3.787073
v -2.218524 2.546514 3.799423
v -2.215929 2.545725 3.800112
v -2.212787 2.545466 3.801192
v -2.215479 2.597559 3.792185
v -2.216068 2.597328 3.352509
v -2.237880 2.545864 3.975365
v -2.242131 2.575133 3.976579
v -2.246151 2.597190 3.803817
v -2.209460 2.597775 3.371835
vt 0.878129 0.015679
vt 0.947235 0.014272
vt 0.943173 0.024492
vt 0.953434 0.015544
vt 0.953124 0.023761
vt 0.589554 0.022082
vt 0.652994 0.014276
vt 0.645714 0.022805
vt 0.655384 0.022042
vt 0.545309 0.020833
vt 0.552422 0.012563
vt 0.801893 0.698367
vt 0.802290 0.714648
vt 0.793807 0.715048
vt 0.842483 0.015233
vt 0.849645 0.009945
vt 0.852770 0.272136
vt 0.973188 0.391101
vt 0.968733 0.387918
vt 0.981912 0.386092
vt 0.943152 0.402497
vt 0.949912 0.396244
vt 0.949912 0.409375
vt 0.651956 0.010634
vt 0.552431 0.008791
vt 0.271263 0.717663
vt 0.277605 0.709220
vt 0.278404 0.717661
vt 0.268581 0.709376
vt 0.277213 0.705202
vt 0.266643 0.717535
vt 0.908010 0.296027
vt 0.806265 0.413799
vt 0.808615 0.295491
vt 0.501821 0.979626
vt 0.497604 0.977047
vt 0.505289 0.976413
vt 0.944381 0.486157
vt 0.934914 0.487169
vt 0.932979 0.483937
vt 0.258718 0.712921
vt 0.256193 0.708572
vt 0.262906 0.714197
vt 0.933160 0.411644
vt 0.933160 0.293519
vt 0.965514 0.132405
vt 0.953434 0.134938
vt 0.965542 0.011548
vt 0.930390 0.419453
vt 0.906022 0.411152
vt 0.954687 0.009914
vt 0.972892 0.004460
vt 0.005782 0.991986
vt 0.000000 0.986780
vt 0.002700 0.984946
vt 0.494169 0.016589
vt 0.496009 0.002541
vt 0.500885 0.020866
vt 0.519788 0.000000
vt 0.507556 0.005209
vt 0.505851 0.000677
vt 0.019754 0.017998
vt 0.159421 0.710411
vt 0.023662 0.704923
vt 0.010499 0.019333
vt 0.001947 0.003105
vt 0.018016 0.000450
vt 0.169317 0.015001
vt 0.972929 0.003317
vt 0.984238 0.000000
vt 0.984946 0.007132
vt 0.810580 0.013825
vt 0.805284 0.004946
vt 0.817519 0.006303
vt 0.817557 0.000000
vt 0.515835 0.014258
vt 0.519419 0.005534
vt 0.520686 0.015278
vt 0.962237 0.261209
vt 0.968075 0.266005
vt 0.965112 0.270868
vt 0.953502 0.271068
vt 0.953434 0.260751
vt 0.011063 1.000000
vt 0.009940 0.993437
vt 0.994993 0.419453
vt 0.936405 0.432323
vt 0.933249 0.419818
vt 0.968075 0.272353
vt 0.979389 0.237447
vt 0.990835 0.238553
vt 0.007805 0.715886
vt 0.010561 0.701612
vt 0.823997 0.276232
vt 0.827027 0.286286
vt 0.954612 0.396244
vt 0.954612 0.413307
vt 0.949912 0.400876
vt 0.805188 0.293519
vt 0.802290 0.280028
vt 0.811600 0.282691
vt 0.817755 0.280730
vt 0.816688 0.293228
vt 0.527081 0.019109
vt 0.527798 0.005039
vt 0.527068 0.009677
vt 0.972892 0.135309
vt 0.953434 0.288039
vt 0.957321 0.278050
vt 0.957321 0.293519
vt 0.260820 0.995997
vt 0.257578 0.993339
vt 0.266643 0.985249
vt 0.265670 0.998779
vt 0.276444 0.969784
vt 0.267797 0.974853
vt 0.271205 0.967060
vt 0.494441 0.968037
vt 0.484545 0.955983
vt 0.500614 0.967801
vt 0.505014 0.968078
vt 0.001817 0.710083
vt 0.515822 0.285890
vt 0.507214 0.015078
vt 0.825929 0.006044
vt 0.825089 0.012367
vt 0.991120 0.274916
vt 0.981054 0.270472
vt 0.333582 0.717781
vt 0.947861 0.280750
vt 0.953434 0.279872
vt 0.794296 0.696363
vt 0.770109 0.703523
vt 0.665710 0.684477
vt 0.933160 0.402613
vt 0.943152 0.396244
vt 0.943152 0.419453
vt 0.888845 0.422839
vt 0.808581 0.419699
vt 0.921613 0.419453
vt 0.655384 0.926134
vt 0.569867 0.909458
vt 0.645483 0.909801
vt 0.651126 0.929329
vt 0.555137 0.927654
vt 0.520568 0.937103
vt 0.509563 0.938022
vt 0.515553 0.922482
vt 0.519367 0.941110
vt 0.256458 0.999668
vt 0.184788 0.707853
vt 0.182815 0.700096
vt 0.191907 0.703989
vt 0.994666 0.432953
vt 0.998591 0.483824
vt 0.802290 0.298320
vt 0.333647 0.707456
vt 0.810710 0.422765
vt 0.906680 0.506301
vt 0.809666 0.506252
vt 0.804172 0.425049
vt 0.982102 0.230597
vt 0.968075 0.226374
vt 0.968242 0.146522
vt 0.982102 0.141203
vt 0.534579 0.913601
vt 0.527679 0.934123
vt 0.525838 0.916826
vt 0.946875 0.299400
vt 0.933160 0.300264
vt 0.942232 0.295517
vt 0.657441 0.701697
vt 0.655384 0.685725
vt 0.362956 0.049821
vt 0.351400 0.018531
vt 0.343352 0.019770
vt 0.346531 0.002255
vt 0.336622 0.018809
vt 0.940824 0.490242
vt 0.945504 0.488538
vt 0.945504 0.494397
vt 0.802290 0.018612
vt 0.187027 0.699822
vt 0.184162 0.017582
vt 0.793350 0.017790
vt 1.000000 0.421034
vt 0.975341 0.234227
vt 0.991120 0.235841
vt 0.505289 0.004269
vt 0.004799 0.019243
vt 0.668989 0.020845
vt 0.665054 0.003978
vt 0.783987 0.009321
vt 0.762231 0.004037
vt 0.507296 0.283805
vt 0.658195 0.023995
vt 0.657925 0.004812
vt 0.656330 0.000000
vt 0.343547 0.703813
vt 0.335721 0.702743
vt 0.336883 0.683534
vt 0.352903 0.705494
vt 0.972892 0.038702
vt 0.984946 0.039329
vt 0.175618 0.701777
vt 0.177840 0.018260
vt 0.171199 0.000000
vt 0.179488 0.001487
vt 0.932979 0.511896
vt 0.932979 0.423474
vt 0.978518 0.234227
vt 0.968074 0.140347
vt 0.954268 0.138398
vt 0.271004 0.979871
vt 0.278405 0.976385
vt 0.951696 0.284692
vt 0.888528 0.417825
vt 0.266376 0.709036
vt 0.266643 0.719860
vt 0.960267 0.000000
vt 0.002216 0.996869
vt 0.253562 0.704392
vt 0.158206 0.048322
vt 0.802881 0.015689
vt 0.002523 0.699998
vt 0.962237 0.138398
vt 0.868644 0.282941
vt 0.808723 0.418160
vt 0.505289 0.274476
vt 0.978064 0.276843
vt 0.501121 0.000059
vt 0.973127 0.138398
vt 0.905115 0.509155
vt 0.802290 0.503105
vt 0.981912 0.293519
vt 0.336110 0.002758
vt 0.932979 0.492336
vt 0.940824 0.488538
vt 0.940824 0.494835
vt 0.933160 0.393871
vt 0.936891 0.391101
vt 0.936891 0.396244
vt 0.999999 0.488538
vt 0.969489 0.230841
vt 0.341349 0.000000
vn -0.9743 -0.0197 -0.2244
vn -0.8193 -0.2314 -0.5246
vn -0.9906 -0.1280 -0.0482
vn -0.6387 -0.7026 -0.3137
vn -0.7991 -0.5991 -0.0507
vn 0.9987 -0.0189 0.0469
vn 0.8389 -0.4624 0.2873
vn 0.9927 -0.1135 0.0407
vn 0.7833 -0.6207 0.0346
vn 0.9881 -0.1475 0.0428
vn 0.9362 -0.1378 0.3235
vn -0.6980 0.7155 -0.0287
vn -0.4860 0.7635 -0.4252
vn -0.8076 0.0548 -0.5872
vn -0.9585 -0.1804 -0.2210
vn -0.5143 -0.1803 -0.8385
vn -0.9943 -0.0999 0.0382
vn -0.2875 -0.3836 -0.8776
vn -0.2004 -0.5840 -0.7866
vn -0.9411 -0.0956 -0.3242
vn 0.4654 -0.3543 0.8111
vn 0.4692 -0.1989 0.8604
vn -0.3350 -0.9416 -0.0334
vn -0.1345 -0.9532 -0.2709
vn -0.0846 -0.9958 -0.0337
vn -0.2317 -0.5002 -0.8343
vn -0.3952 -0.4947 0.7740
vn 0.2101 -0.8883 0.4084
vn -0.0707 0.9963 -0.0493
vn -0.1665 0.9449 -0.2819
vn -0.3432 0.9357 -0.0822
vn -0.1341 -0.6556 0.7431
vn 0.3437 -0.6931 0.6337
vn 0.3994 -0.3661 0.8405
vn -0.6676 -0.5935 0.4495
vn -0.1262 -0.1659 0.9780
vn -0.1175 -0.5688 0.8140
vn 0.3581 0.9304 0.0776
vn 0.8758 0.4788 0.0607
vn 0.5068 0.8619 0.0153
vn 0.0835 -0.9963 -0.0212
vn 0.1435 -0.8729 -0.4664
vn 0.3376 -0.9413 -0.0045
vn 0.7696 0.4980 0.3998
vn 0.2353 0.6918 0.6827
vn 0.0556 0.9983 -0.0165
vn -0.0057 1.0000 -0.0052
vn 0.0276 0.9996 -0.0094
vn 0.2203 0.9752 -0.0209
vn 0.7494 0.5394 -0.3839
vn 0.1400 0.7733 -0.6184
vn -0.0679 0.9973 -0.0278
vn -0.4664 -0.3680 -0.8044
vn -0.7512 0.5131 -0.4152
vn -0.1838 0.5583 -0.8090
vn -0.9985 0.0316 -0.0443
vn -0.8376 -0.4567 -0.2996
vn 0.9924 -0.1038 0.0660
vn 0.8305 -0.4213 0.3643
vn 0.8263 -0.5612 0.0470
vn -0.1243 0.1829 0.9752
vn -0.1665 0.7725 0.6128
vn -0.7041 0.4159 0.5756
vn -0.6943 -0.4350 0.5734
vn 0.0825 0.9922 0.0935
vn -0.2334 -0.6329 -0.7382
vn -0.3938 -0.6950 -0.6016
vn -0.4220 -0.4579 -0.7825
vn 0.1438 0.9896 -0.0093
vn 0.1776 0.9834 -0.0366
vn -0.8691 -0.4912 0.0578
vn -0.8367 -0.5457 0.0465
vn -0.6820 0.7310 0.0206
vn -0.9980 -0.0059 0.0630
vn 0.8755 -0.4821 0.0320
vn 0.7761 -0.5752 0.2585
vn -0.2886 0.9437 0.1619
vn -0.0362 0.9992 0.0193
vn -0.1200 -0.9915 0.0506
vn -0.5817 -0.7951 0.1720
vn -0.3466 -0.9379 0.0109
vn 0.0754 -0.9966 0.0336
vn 0.0148 -0.9999 0.0044
vn 0.3359 -0.9412 0.0351
vn 0.6822 0.7301 -0.0381
vn 0.9999 0.0092 -0.0103
vn -0.8288 -0.5313 -0.1755
vn -0.0092 -0.9997 -0.0239
vn -0.9195 -0.2629 0.2921
vn -0.9791 0.2010 -0.0304
vn -0.9881 -0.1517 -0.0257
vn -0.3388 -0.0598 -0.9389
vn -0.7787 -0.4975 -0.3823
vn 0.7717 -0.5746 -0.2724
vn 0.9986 -0.0454 -0.0268
vn 0.9926 -0.1197 -0.0216
vn 0.4698 -0.2918 -0.8332
vn 0.8973 -0.1489 -0.4156
vn 0.8525 -0.4403 -0.2815
vn 0.9998 0.0219 -0.0037
vn 0.3897 -0.2985 -0.8712
vn -0.0577 0.9889 -0.1371
vn -0.4386 0.8831 -0.1669
vn -0.2787 0.7171 -0.6388
vn -0.4755 -0.1286 -0.8703
vn -0.6681 -0.4236 -0.6117
vn -0.1654 -0.9461 -0.2784
vn -0.3452 -0.3115 -0.8854
vn 0.2849 -0.2012 -0.9372
vn -0.1617 -0.8789 -0.4487
vn -0.1125 0.7334 -0.6704
vn 0.9684 -0.2478 -0.0295
vn 0.4866 -0.7366 -0.4697
vn 0.8233 -0.5670 -0.0264
vn -0.7290 -0.6843 -0.0204
vn -0.0139 -0.9999 -0.0014
vn -0.0608 -0.9979 -0.0222
vn -0.2624 -0.9648 -0.0176
vn -0.9557 -0.0986 -0.2772
vn -0.8453 0.4083 -0.3446
vn -0.7838 -0.3369 -0.5217
vn 0.5092 0.8605 -0.0157
vn -0.9862 -0.1605 -0.0399
vn 0.6826 0.7292 -0.0477
vn -0.7187 -0.6952 -0.0155
vn -0.5868 -0.7956 -0.1507
vn -0.1457 -0.9875 -0.0596
vn -0.0287 -0.9995 -0.0107
vn -0.1278 0.9904 -0.0518
vn -0.2553 0.9668 -0.0134
vn -0.0810 -0.9549 0.2855
vn -0.8016 -0.0345 0.5969
vn -0.6911 0.7225 -0.0180
vn -0.0133 0.9999 -0.0011
s 1
f 1/1/1 2/2/2 3/3/3
f 3/3/3 4/4/4 5/5/5
f 6/6/6 7/7/7 8/8/8
f 8/8/8 7/7/7 9/9/9
f 10/10/10 11/11/11 6/6/6
f 12/12/12 13/13/13 14/14/14
f 15/15/15 16/16/16 1/1/1
f 3/3/3 17/17/17 1/1/1
f 2/2/2 1/1/1 16/16/16
f 14/18/14 18/19/18 19/20/19
f 19/21/19 20/22/20 14/23/14
f 21/24/21 11/11/11 22/25/22
f 23/26/23 24/27/24 25/28/25
f 4/29/4 26/30/26 24/27/24
f 5/31/5 4/29/4 23/26/23
f 22/32/22 27/33/27 21/34/21
f 21/35/21 28/36/28 7/37/7
f 26/38/26 4/39/4 2/40/2
f 29/41/29 30/42/30 31/43/31
f 32/44/32 22/32/22 33/45/33
f 33/46/33 34/47/34 32/48/32
f 32/44/32 35/49/35 36/50/36
f 37/51/37 35/52/35 32/48/32
f 38/53/38 39/54/39 40/55/40
f 41/56/41 42/57/42 43/58/43
f 34/59/34 44/60/44 45/61/45
f 46/62/46 47/63/47 48/64/48
f 49/65/49 50/66/50 51/67/51
f 51/67/51 52/68/52 46/62/46
f 53/69/53 54/70/54 55/71/55
f 56/72/56 54/73/54 57/74/57
f 54/73/54 53/75/53 57/74/57
f 58/76/58 44/60/44 59/77/59
f 44/60/44 34/59/34 59/77/59
f 58/76/58 59/77/59 60/78/60
f 61/79/61 62/80/62 63/81/63
f 61/79/61 64/82/64 37/83/37
f 45/84/45 38/53/38 65/85/65
f 66/86/66 16/87/16 67/88/67
f 53/89/53 68/90/68 66/91/66
f 69/92/69 70/93/70 48/64/48
f 71/94/71 15/15/15 17/17/17
f 17/17/17 35/95/35 71/94/71
f 71/96/71 64/97/64 72/98/72
f 63/99/63 73/100/73 74/101/74
f 74/101/74 73/100/73 56/72/56
f 72/102/72 64/103/64 74/101/74
f 75/104/75 11/11/11 10/10/10
f 33/105/33 11/11/11 76/106/76
f 76/107/76 34/47/34 33/46/33
f 60/108/60 59/109/59 75/110/75
f 77/111/77 29/41/29 31/43/31
f 78/112/78 47/63/47 29/41/29
f 31/43/31 73/113/73 77/111/77
f 73/113/73 63/114/63 77/111/77
f 79/115/79 80/116/80 81/117/81
f 82/118/82 28/36/28 79/115/79
f 79/115/79 83/119/83 82/118/82
f 84/120/84 28/36/28 82/118/82
f 9/121/9 28/36/28 84/120/84
f 69/92/69 65/85/65 38/53/38
f 69/92/69 48/64/48 65/85/65
f 38/53/38 85/122/85 69/92/69
f 86/123/86 39/124/39 58/76/58
f 67/125/67 15/15/15 87/126/87
f 87/126/87 72/102/72 57/74/57
f 87/127/87 53/89/53 67/128/67
f 80/116/80 23/26/23 81/117/81
f 25/28/25 88/129/88 83/119/83
f 78/112/78 48/64/48 47/63/47
f 89/130/89 5/5/5 80/131/80
f 90/132/90 20/133/20 91/134/91
f 20/135/20 19/136/19 92/137/92
f 92/138/92 93/139/93 20/140/20
f 94/141/94 95/142/95 96/143/96
f 97/144/97 98/145/98 94/141/94
f 99/146/99 50/147/50 100/148/100
f 101/149/101 50/147/50 99/146/99
f 77/111/77 65/85/65 78/112/78
f 77/111/77 62/150/62 45/84/45
f 102/151/102 29/41/29 47/63/47
f 102/151/102 103/152/103 104/153/104
f 104/153/104 30/42/30 102/151/102
f 26/38/26 105/154/105 106/155/106
f 27/33/27 28/156/28 21/34/21
f 25/28/25 107/157/107 88/129/88
f 108/158/108 109/159/109 97/160/97
f 97/160/97 110/161/110 108/158/108
f 18/162/18 111/163/111 51/164/51
f 51/164/51 101/165/101 18/162/18
f 112/166/112 113/167/113 114/168/114
f 113/169/113 101/170/101 99/171/99
f 91/134/91 93/172/93 115/173/115
f 6/6/6 96/143/96 95/142/95
f 95/142/95 98/145/98 112/166/112
f 41/56/41 116/174/116 117/175/117
f 118/176/118 110/177/110 117/175/117
f 115/178/115 110/177/110 118/176/118
f 117/175/117 42/57/42 41/56/41
f 119/179/119 68/180/68 120/181/120
f 120/182/120 12/12/12 90/132/90
f 120/183/120 103/152/103 12/184/12
f 90/132/90 119/185/119 120/182/120
f 121/186/121 105/154/105 66/86/66
f 68/90/68 119/187/119 121/188/121
f 83/119/83 41/56/41 82/118/82
f 84/120/84 94/189/94 9/121/9
f 82/118/82 43/58/43 84/120/84
f 48/64/48 49/65/49 46/62/46
f 70/93/70 122/190/122 49/65/49
f 123/191/123 106/192/106 121/193/121
f 105/194/105 121/193/121 106/192/106
f 119/185/119 91/134/91 123/191/123
f 9/9/9 96/143/96 8/8/8
f 96/143/96 6/6/6 8/8/8
f 99/146/99 100/148/100 86/123/86
f 100/148/100 124/195/124 86/123/86
f 10/10/10 112/166/112 75/104/75
f 75/104/75 99/146/99 60/78/60
f 125/196/125 106/192/106 123/191/123
f 126/197/126 107/198/107 106/192/106
f 123/191/123 115/173/115 125/196/125
f 6/6/6 95/142/95 10/10/10
f 127/199/127 126/200/126 125/201/125
f 127/199/127 107/157/107 126/200/126
f 127/199/127 117/175/117 128/202/128
f 125/201/125 118/176/118 127/199/127
f 68/203/68 55/71/55 104/204/104
f 129/205/129 47/63/47 52/68/52
f 130/206/130 103/152/103 129/205/129
f 52/68/52 51/67/51 111/207/111
f 111/207/111 130/206/130 52/68/52
f 13/208/13 12/184/12 130/206/130
f 113/209/113 109/159/109 19/210/19
f 19/20/19 101/170/101 113/169/113
f 18/162/18 14/211/14 111/163/111
f 45/212/45 61/79/61 34/213/34
f 28/36/28 27/214/27 131/215/131
f 102/151/102 47/63/47 129/205/129
f 3/3/3 2/2/2 4/4/4
f 89/130/89 80/131/80 27/216/27
f 36/50/36 35/49/35 132/217/132
f 132/217/132 27/33/27 36/50/36
f 11/11/11 7/7/7 6/6/6
f 11/11/11 21/24/21 7/7/7
f 90/132/90 12/12/12 14/14/14
f 26/38/26 2/40/2 16/87/16
f 90/132/90 14/14/14 20/133/20
f 25/28/25 79/115/79 23/26/23
f 23/26/23 4/29/4 24/27/24
f 22/32/22 36/50/36 27/33/27
f 31/43/31 54/218/54 133/219/133
f 31/43/31 30/42/30 54/218/54
f 31/43/31 133/219/133 73/113/73
f 37/51/37 64/220/64 35/52/35
f 38/53/38 44/221/44 39/54/39
f 38/53/38 45/84/45 44/221/44
f 55/222/55 54/218/54 30/42/30
f 41/56/41 83/119/83 116/174/116
f 43/58/43 42/57/42 94/189/94
f 46/62/46 52/68/52 134/223/134
f 46/62/46 134/223/134 47/63/47
f 46/62/46 49/65/49 51/67/51
f 49/65/49 122/190/122 50/66/50
f 56/72/56 73/100/73 133/224/133
f 56/72/56 133/224/133 54/73/54
f 57/74/57 72/102/72 56/72/56
f 58/76/58 39/124/39 44/60/44
f 61/79/61 63/81/63 64/82/64
f 65/85/65 77/111/77 45/84/45
f 66/86/66 105/154/105 16/87/16
f 67/128/67 53/89/53 66/91/66
f 69/92/69 85/122/85 70/93/70
f 85/122/85 124/225/124 70/93/70
f 71/94/71 87/126/87 15/15/15
f 71/94/71 35/95/35 64/103/64
f 64/103/64 63/99/63 74/101/74
f 75/104/75 76/106/76 11/11/11
f 33/105/33 22/25/22 11/11/11
f 75/104/75 59/77/59 76/106/76
f 76/107/76 59/226/59 34/47/34
f 77/111/77 78/112/78 29/41/29
f 77/111/77 63/114/63 62/150/62
f 79/115/79 131/215/131 80/116/80
f 131/215/131 27/214/27 80/116/80
f 79/115/79 25/28/25 83/119/83
f 17/17/17 132/227/132 35/95/35
f 17/17/17 89/130/89 132/227/132
f 89/228/89 27/33/27 132/217/132
f 9/121/9 7/37/7 28/36/28
f 38/53/38 40/55/40 85/122/85
f 40/55/40 39/54/39 85/122/85
f 86/123/86 124/195/124 85/229/85
f 86/123/86 85/229/85 39/124/39
f 86/123/86 58/76/58 60/78/60
f 67/125/67 16/16/16 15/15/15
f 87/126/87 71/94/71 72/102/72
f 87/127/87 57/230/57 53/89/53
f 74/101/74 56/72/56 72/102/72
f 81/117/81 23/26/23 79/115/79
f 80/116/80 5/31/5 23/26/23
f 1/1/1 17/17/17 15/15/15
f 17/17/17 3/3/3 89/130/89
f 89/130/89 3/3/3 5/5/5
f 20/133/20 93/172/93 91/134/91
f 92/138/92 108/158/108 93/139/93
f 94/189/94 42/57/42 97/231/97
f 94/141/94 98/145/98 95/142/95
f 101/165/101 51/164/51 50/232/50
f 78/112/78 65/85/65 48/64/48
f 61/79/61 45/212/45 62/80/62
f 102/151/102 30/42/30 29/41/29
f 25/28/25 24/27/24 107/157/107
f 88/129/88 107/157/107 127/199/127
f 105/154/105 26/38/26 16/87/16
f 98/233/98 97/160/97 109/159/109
f 97/160/97 42/234/42 110/161/110
f 112/166/112 98/145/98 113/167/113
f 98/233/98 109/159/109 113/209/113
f 114/235/114 113/169/113 99/171/99
f 115/178/115 93/236/93 110/177/110
f 117/175/117 110/177/110 42/57/42
f 125/201/125 115/178/115 118/176/118
f 123/191/123 91/134/91 115/173/115
f 120/237/120 68/238/68 104/239/104
f 120/240/120 104/241/104 103/242/103
f 66/91/66 68/90/68 121/188/121
f 82/118/82 41/56/41 43/58/43
f 84/120/84 43/58/43 94/189/94
f 48/64/48 70/93/70 49/65/49
f 70/93/70 124/225/124 122/190/122
f 121/193/121 119/185/119 123/191/123
f 119/185/119 90/132/90 91/134/91
f 9/9/9 94/141/94 96/143/96
f 60/78/60 99/146/99 86/123/86
f 100/148/100 50/147/50 124/195/124
f 50/66/50 122/190/122 124/225/124
f 75/104/75 112/166/112 114/168/114
f 75/104/75 114/168/114 99/146/99
f 125/196/125 126/197/126 106/192/106
f 10/10/10 95/142/95 112/166/112
f 127/199/127 118/176/118 117/175/117
f 128/202/128 117/175/117 116/174/116
f 128/202/128 116/174/116 83/119/83
f 24/27/24 26/30/26 107/157/107
f 106/155/106 107/243/107 26/38/26
f 104/153/104 55/222/55 30/42/30
f 68/203/68 53/69/53 55/71/55
f 52/68/52 130/206/130 129/205/129
f 52/68/52 47/63/47 134/223/134
f 130/206/130 12/184/12 103/152/103
f 111/207/111 13/208/13 130/206/130
f 19/20/19 18/19/18 101/170/101
f 111/163/111 14/211/14 13/244/13
f 92/138/92 109/159/109 108/158/108
f 108/245/108 110/177/110 93/236/93
f 92/138/92 19/210/19 109/159/109
f 61/79/61 37/83/37 34/213/34
f 79/115/79 28/36/28 131/215/131
f 129/205/129 103/152/103 102/151/102
f 32/44/32 36/50/36 22/32/22
f 32/48/32 34/47/34 37/51/37
f 88/129/88 127/199/127 128/202/128
f 88/129/88 128/202/128 83/119/83
